PathFileType	4	(X/Y/Z)	C:/Users/beibeiliu/ov580/test_trc/User3\sequence.26_training_dense_right.trc
DataRate	CameraRate	NumFrames	NumMarkers	Units	OrigDataRate	OrigDataStartFrame	OrigNumFrames
120	120	12	19	mm	120	67	266
Frame#	Time	ThumbCMC			ThumbMCP			ThumbIP			ThumbTip			IndexMCP			IndexPIP			IndexTip			MiddleMCP			MiddlePIP			MiddleTip			RingMCP			RingPIP			RingTip			PinkyMCP			PinkyPIP			PinkyTip			BackHand1			BackHand2			BackHand3	
		X0	Y0	Z0	X1	Y1	Z1	X2	Y2	Z2	X3	Y3	Z3	X4	Y4	Z4	X5	Y5	Z5	X6	Y6	Z6	X7	Y7	Z7	X8	Y8	Z8	X9	Y9	Z9	X10	Y10	Z10	X11	Y11	Z11	X12	Y12	Z12	X13	Y13	Z13	X14	Y14	Z14	X15	Y15	Z15	X16	Y16	Z16	X17	Y17	Z17	X18	Y18	Z18	
66	0.55	198.765	8.14662	11.2692	175.514	-2.47595	-10.5608	160.598	-26.133	-30.6696	157.542	-50.8578	-28.1676	191.988	-34.8439	-54.3701	180.372	-38.4752	-72.9995	168.669	-50.457	-95.8029	182.395	-55.7657	-42.899	154.965	-60.7756	-51.6438	119.545	-64.1801	-54.3225	170.774	-62.8291	-17.2055	145.442	-53.4334	-2.32818	140.866	-34.5866	18.9356	175.819	-71.6428	-1.62504	158.175	-57.7914	10.5154	166.904	-36.0065	32.84	226.83	-55.3914	2.46598	236.375	-40.1477	31.6938	229.227	-15.5027	4.77746	
67	0.558333	197.908	7.50823	11.807	171.926	-3.56592	-8.58934	156.296	-27.8766	-23.0922	147.19	-49.7133	-22.9794	182.979	-37.3647	-51.5726	167.433	-41.3052	-70.993	154.737	-53.5385	-89.0258	167.472	-54.8203	-41.2418	142.985	-59.9445	-44.6617	109.802	-59.7184	-43.852	166.524	-63.7113	-11.7635	140.736	-51.8852	1.72627	140.019	-31.4097	26.8878	167.327	-72.7717	5.6647	151.51	-49.9672	18.0471	163.942	-33.7433	36.2855	220.045	-56.0185	4.82337	235.203	-44.9632	33.255	224.987	-18.6385	0.00028921	
68	0.566667	196.614	6.8845	13.1026	170.364	-0.576207	-4.58517	146.446	-19.9734	-21.4705	138.428	-45.2807	-19.4596	174.521	-35.0817	-47.2593	158.357	-40.8682	-64.6808	142.918	-45.4454	-84.9219	156.54	-56.1153	-36.2926	131.33	-54.9143	-37.8476	97.4389	-50.1354	-33.8146	155.1	-60.7446	-6.71258	134.146	-44.4314	7.52222	139.625	-21.2298	33.2901	157.877	-66.9049	8.73465	146.378	-48.7422	20.5618	163.616	-26.5629	37.6565	212.462	-55.7782	4.12867	228.281	-47.7274	28.7524	220.196	-25.1142	1.09069	
69	0.575	196.044	3.7817	12.7502	169.345	3.428	-2.97465	144.168	-15.8743	-18.3709	132.764	-35.121	-14.5356	164.858	-27.9585	-49.7045	148.929	-31.033	-64.5072	133.628	-35.9658	-82.0625	149.706	-47.1366	-33.5333	121.704	-42.605	-35.3244	88.5854	-37.6151	-24.3088	148.358	-52.9267	-4.24913	129.109	-34.7986	11.058	139.603	-17.0475	39.6311	149.125	-57.224	10.748	140.264	-41.5076	28.7933	159.22	-23.2491	41.6309	202.895	-58.4703	3.94583	224.953	-44.0406	28.5528	217.11	-20.1535	2.81966	
70	0.583333	197.137	8.94755	16.3381	167.754	8.84556	-1.48242	140.501	-3.23937	-15.856	127.236	-26.37	-12.1598	157.752	-23.6463	-46.703	142.024	-21.5321	-62.6298	122.727	-23.8641	-82.3614	142.637	-40.912	-28.4758	116.658	-29.9545	-31.9362	85.2471	-21.5731	-19.3712	141.991	-40.9854	-2.02542	123.993	-23.2964	15.5055	138.193	-3.8736	39.5	141.79	-47.9958	13.95	137.675	-26.7031	32.0285	155.238	-11.6762	41.3935	193.704	-54.3844	5.06473	216.185	-45.7452	26.4462	213.531	-21.8153	0.44355	
71	0.591667	197.388	13.861	16.3476	169.325	20.9733	-0.991291	142.266	3.71516	-11.818	124.342	-16.8988	-9.90468	156.838	-11.6022	-44.1355	136.417	-12.2687	-59.9381	122.257	-9.60806	-76.811	136.149	-25.319	-29.1738	111.785	-16.8585	-29.4099	79.7973	0.116446	-15.6331	135.913	-29.8088	0.862288	122.669	-14.7228	21.622	141.41	5.91297	44.8201	139.39	-40.8121	17.4553	133.319	-18.4652	30.2077	152.238	-4.30412	43.833	191.708	-49.4596	6.25202	215.654	-41.2797	29.8602	211.236	-15.4302	5.1002	
72	0.6	201.414	19.0703	20.1379	171.415	25.4107	-1.28859	144.616	13.7974	-12.6374	126.906	-5.03713	-9.07624	158.55	-4.08315	-41.1478	137.294	-0.565098	-60.9983	120.42	0.155899	-77.587	135.952	-15.962	-27.6781	108.458	-5.94623	-26.8109	83.6323	13.3906	-16.764	135.94	-20.523	-0.309194	123.178	1.72364	20.5738	141.058	12.4565	46.5029	137.607	-31.0247	15.0485	133.75	-5.98254	31.563	153.29	6.67531	48.9497	188.083	-42.9803	5.86296	208.438	-41.1066	26.8677	208.335	-10.6724	0.859706	
73	0.608333	202.496	22.7442	17.4664	176.601	35.878	-1.80102	149.4	23.6923	-12.8401	130.973	6.38865	-12.3614	162.322	5.67329	-44.3933	146.064	13.5493	-62.7645	130.264	13.1743	-79.4777	139.546	-5.63223	-30.4417	115.343	5.75603	-29.9768	88.0424	26.3289	-20.1304	137.963	-10.6882	-3.10791	122.864	8.9629	20.2933	141.607	21.966	44.1201	136.404	-22.1749	14.3777	131.702	0.126325	32.0726	151.886	16.3474	48.2063	185.62	-34.2678	3.89212	209.151	-34.6701	29.1915	211.641	-6.28693	4.64878	
74	0.616667	205.342	27.6091	19.5555	180.14	37.4573	-2.0895	154.693	31.0391	-14.5379	135.194	13.1235	-14.3553	168.099	13.697	-46.1251	152.058	20.5954	-66.6883	135.863	20.4229	-82.2517	143.68	2.98286	-33.3679	116.854	15.2505	-33.2714	92.8367	33.9122	-24.0897	140.246	-4.48157	-6.58253	126.457	18.0736	17.7878	140.225	28.7248	39.6097	137.47	-14.9453	9.86453	133.351	9.55225	27.5079	152.87	23.0289	42.4906	185.426	-31.6787	2.54076	209.52	-30.9543	29.4247	212.171	-3.43876	1.42505	
75	0.625	208.725	32.6827	18.8519	186.251	46.0365	-1.67957	160.2	40.2951	-17.6698	137.212	20.427	-23.0843	173.902	21.3853	-49.8297	160.089	28.7289	-68.2601	147.517	33.4195	-88.07	154.289	9.92824	-37.8091	124.854	25.8536	-40.7366	96.7802	45.1392	-28.349	141.025	3.78202	-10.0718	129.407	22.0356	6.04083	142.067	33.0154	35.5337	141.344	-11.0234	3.7277	133.369	9.68463	19.8717	151.664	25.274	40.5905	189.891	-27.0696	0.221649	210.478	-26.8312	28.0847	218.228	2.0713	0.616205	
76	0.633333	211.382	37.0961	21.434	187.499	48.2706	-5.18525	163.935	42.4147	-20.7515	142.352	27.1797	-28.6243	183.67	24.4766	-48.9437	171.878	37.3337	-69.9554	154.949	38.5093	-93.3588	160.566	15.5692	-42.9782	132.61	28.3312	-46.8101	107.043	47.5956	-38.4036	151.255	6.75908	-17.2877	131.864	25.4303	3.19851	141.191	35.0824	30.4313	147.593	-6.63927	-3.73087	137.126	12.7254	12.294	154.689	28.2069	34.0218	198.964	-19.906	1.01831	213.54	-25.8502	24.0371	223.71	5.98825	6.82464	
77	0.641667	211.669	42.5553	21.6843	189.156	50.7628	-0.581284	168.437	46.3023	-23.2755	148.841	28.1662	-33.3294	191.991	35.4252	-54.7084	178.896	42.1196	-72.8548	166.278	43.0838	-94.4332	167.936	18.102	-46.936	143.945	32.0002	-53.2621	111.442	43.6503	-46.9029	152.609	7.45137	-22.3191	137.756	24.7855	-7.77754	139.202	35.4897	21.3403	151.766	-8.39505	-8.55636	140.918	11.5107	8.90085	158.136	22.3382	32.3183	204.429	-15.1806	-3.81911	216.962	-20.2952	23.6395	225.08	10.6607	6.30055	
